<svg width="201" height="37" viewBox="0 0 201 37" fill="none" xmlns="http://www.w3.org/2000/svg">
<path fill-rule="evenodd" clip-rule="evenodd" d="M46.8912 3.06239C45.739 2.59024 44.3133 2.45109 42.72 2.68757C41.7376 2.83396 40.6902 3.12352 39.6041 3.56511C38.5613 3.99061 37.563 4.52389 36.6171 5.14244L40.4543 6.71574C41.4003 6.0972 42.3986 5.56391 43.4403 5.13922C44.5264 4.69683 45.5726 4.40726 46.5561 4.26087C48.1494 4.02439 49.5751 4.16354 50.7273 4.6357L46.8912 3.06239Z" fill="#F0A72E"/>
<mask id="mask0" mask-type="alpha" maskUnits="userSpaceOnUse" x="0" y="0" width="38" height="35">
<path fill-rule="evenodd" clip-rule="evenodd" d="M0 0.609169H37.1391V34.2347H0V0.609169Z" fill="white"/>
</mask>
<g mask="url(#mask0)">
<path fill-rule="evenodd" clip-rule="evenodd" d="M33.3031 1.17282C31.9719 0.626667 30.3228 0.466602 28.4811 0.74008C27.3437 0.908993 26.1322 1.2436 24.8752 1.75597C22.7839 2.60858 20.8202 3.84728 19.1176 5.31199C15.9846 8.00736 13.7349 11.4677 13.1901 14.6891C12.2499 14.8387 11.2424 15.1226 10.2088 15.5441C8.4058 16.2785 6.71339 17.345 5.24663 18.6063C2.10342 21.3065 -0.0118086 24.8971 -0.000411936 28.0228C0.0098451 30.3023 1.14838 31.9069 2.98667 32.6606L6.8228 34.2347C4.98337 33.4803 3.84484 31.8756 3.83572 29.5961C3.82318 26.4704 5.93955 22.8798 9.08163 20.1796C10.5495 18.9183 12.2408 17.8518 14.0449 17.1174C15.0774 16.6959 16.086 16.412 17.0251 16.2624C17.5699 13.041 19.8207 9.58067 22.9537 6.8853C24.6564 5.42058 26.6189 4.18188 28.7113 3.32928C29.9672 2.81691 31.1787 2.4823 32.3161 2.31338C34.1589 2.0391 35.8069 2.19997 37.1392 2.74612L33.3031 1.17282Z" fill="#F0A72E"/>
</g>
<path fill-rule="evenodd" clip-rule="evenodd" d="M28.7109 3.32944C34.6441 0.911568 39.5743 2.44465 40.4541 6.71574C41.4 6.0972 42.3984 5.56392 43.44 5.13922C49.0951 2.83476 53.6971 4.68557 53.7153 9.27115C53.7335 13.8575 49.1612 19.4462 43.5061 21.7506L14.1106 33.729C8.44757 36.0366 3.85356 34.1826 3.83532 29.5962C3.81709 25.0098 8.38033 19.4252 14.0434 17.1176C15.0782 16.6961 16.0856 16.4122 17.0247 16.2625C17.8658 11.2901 22.7687 5.75052 28.7109 3.32944" fill="#FFCA00"/>
<path fill-rule="evenodd" clip-rule="evenodd" d="M76.8521 5.31441C75.6999 4.84225 74.2742 4.7031 72.6809 4.93958C71.6974 5.08597 70.6512 5.37554 69.5639 5.81712C68.5223 6.24182 67.5239 6.77591 66.578 7.39445L70.4141 8.96775C71.3601 8.34921 72.3584 7.81512 73.4012 7.39123C74.4862 6.94804 75.5335 6.65928 76.5159 6.51288C78.1103 6.27641 79.5349 6.41556 80.6871 6.88771L76.8521 5.31441Z" fill="#D43E3E"/>
<path fill-rule="evenodd" clip-rule="evenodd" d="M63.2584 3.41977C61.9272 2.87361 60.2781 2.71274 58.4364 2.98622C57.299 3.15514 56.0898 3.48974 54.8351 4.00131C52.7506 4.8507 50.7926 6.08618 49.0934 7.54848C45.9582 10.2463 43.7039 13.713 43.158 16.9376C42.2098 17.0905 41.2103 17.3712 40.1686 17.7959C38.3679 18.5294 36.6778 19.596 35.2111 20.8564C32.0678 23.5566 29.9481 27.1488 29.9606 30.2745C29.9697 32.5532 31.1105 34.1563 32.9477 34.9108L36.7838 36.4833C34.9455 35.7296 33.8047 34.1265 33.7956 31.8478C33.7831 28.7221 35.904 25.1299 39.0461 22.4297C40.514 21.1685 42.2041 20.1027 44.0036 19.3692C45.0476 18.9445 46.0459 18.6638 46.9941 18.5109C47.54 15.2855 49.7943 11.8196 52.9295 9.12179C54.6288 7.65948 56.5867 6.42401 58.6712 5.57381C59.9248 5.06305 61.1352 4.72844 62.2714 4.55953C64.1143 4.28605 65.7622 4.44692 67.0945 4.99307L63.2584 3.41977Z" fill="#D43E3E"/>
<path fill-rule="evenodd" clip-rule="evenodd" d="M61.6428 5.14508C67.5759 2.72802 72.5073 4.26754 73.386 8.53863C74.3319 7.92008 75.3303 7.3868 76.3731 6.9621C82.0281 4.65765 86.629 6.50845 86.6472 11.094C86.6654 15.6804 82.0942 21.269 76.4392 23.5735L47.0425 35.5518C41.3886 37.8563 36.7866 36.0055 36.7684 31.4191C36.7501 26.8327 41.3214 21.2441 46.9764 18.9396C48.0192 18.5158 49.0187 18.235 49.9658 18.0814C50.8068 13.1097 55.7097 7.56295 61.6428 5.14508" fill="#FA7564"/>
<path d="M94.66 26V12.92H98.84C99.52 12.92 100.14 12.98 100.7 13.1C101.273 13.2067 101.767 13.3867 102.18 13.64C102.607 13.88 102.933 14.2067 103.16 14.62C103.4 15.0333 103.52 15.54 103.52 16.14C103.52 16.7667 103.36 17.3467 103.04 17.88C102.72 18.4133 102.273 18.78 101.7 18.98V19.06C102.42 19.22 103.013 19.56 103.48 20.08C103.96 20.5867 104.2 21.28 104.2 22.16C104.2 22.8133 104.073 23.38 103.82 23.86C103.567 24.34 103.213 24.74 102.76 25.06C102.32 25.38 101.793 25.62 101.18 25.78C100.567 25.9267 99.9 26 99.18 26H94.66ZM96.98 18.32H98.64C99.56 18.32 100.22 18.1533 100.62 17.82C101.033 17.4867 101.24 17.04 101.24 16.48C101.24 15.84 101.027 15.3867 100.6 15.12C100.173 14.8533 99.5333 14.72 98.68 14.72H96.98V18.32ZM96.98 24.2H98.94C99.9 24.2 100.64 24.0267 101.16 23.68C101.68 23.32 101.94 22.7733 101.94 22.04C101.94 21.3467 101.687 20.8467 101.18 20.54C100.673 20.22 99.9267 20.06 98.94 20.06H96.98V24.2ZM108.964 26.24C107.91 26.24 107.144 25.9067 106.664 25.24C106.184 24.56 105.944 23.5933 105.944 22.34V16.18H108.244V22.04C108.244 22.8533 108.364 23.4267 108.604 23.76C108.844 24.0933 109.23 24.26 109.764 24.26C110.19 24.26 110.564 24.1533 110.884 23.94C111.217 23.7267 111.57 23.38 111.944 22.9V16.18H114.244V26H112.364L112.184 24.56H112.124C111.697 25.0667 111.23 25.4733 110.724 25.78C110.23 26.0867 109.644 26.24 108.964 26.24ZM119.547 26.24C118.867 26.24 118.194 26.1133 117.527 25.86C116.874 25.5933 116.307 25.2667 115.827 24.88L116.907 23.4C117.347 23.7467 117.781 24.02 118.207 24.22C118.647 24.4067 119.121 24.5 119.627 24.5C120.161 24.5 120.554 24.3933 120.807 24.18C121.061 23.9533 121.187 23.6667 121.187 23.32C121.187 23.12 121.127 22.9467 121.007 22.8C120.887 22.64 120.727 22.5 120.527 22.38C120.327 22.26 120.101 22.1533 119.847 22.06C119.594 21.9533 119.341 21.8467 119.087 21.74C118.767 21.62 118.441 21.48 118.107 21.32C117.774 21.16 117.474 20.9667 117.207 20.74C116.954 20.5133 116.741 20.2533 116.567 19.96C116.407 19.6533 116.327 19.2933 116.327 18.88C116.327 18.0133 116.647 17.3067 117.287 16.76C117.927 16.2133 118.801 15.94 119.907 15.94C120.587 15.94 121.201 16.06 121.747 16.3C122.294 16.54 122.767 16.8133 123.167 17.12L122.107 18.52C121.761 18.2667 121.407 18.0667 121.047 17.92C120.701 17.76 120.334 17.68 119.947 17.68C119.454 17.68 119.087 17.7867 118.847 18C118.621 18.2 118.507 18.4533 118.507 18.76C118.507 18.96 118.561 19.1333 118.667 19.28C118.787 19.4133 118.941 19.5333 119.127 19.64C119.314 19.7467 119.527 19.8467 119.767 19.94C120.021 20.0333 120.281 20.1267 120.547 20.22C120.881 20.34 121.214 20.48 121.547 20.64C121.881 20.7867 122.181 20.9733 122.447 21.2C122.727 21.4267 122.947 21.7067 123.107 22.04C123.281 22.36 123.367 22.7467 123.367 23.2C123.367 23.6267 123.281 24.0267 123.107 24.4C122.947 24.76 122.707 25.08 122.387 25.36C122.067 25.6267 121.667 25.84 121.187 26C120.707 26.16 120.161 26.24 119.547 26.24ZM125.071 26V16.18H127.371V26H125.071ZM126.231 14.46C125.817 14.46 125.477 14.34 125.211 14.1C124.944 13.86 124.811 13.5467 124.811 13.16C124.811 12.7733 124.944 12.46 125.211 12.22C125.477 11.9667 125.817 11.84 126.231 11.84C126.644 11.84 126.984 11.9667 127.251 12.22C127.517 12.46 127.651 12.7733 127.651 13.16C127.651 13.5467 127.517 13.86 127.251 14.1C126.984 14.34 126.644 14.46 126.231 14.46ZM129.955 26V16.18H131.855L132.015 17.5H132.095C132.535 17.0733 133.009 16.7067 133.515 16.4C134.035 16.0933 134.635 15.94 135.315 15.94C136.369 15.94 137.135 16.28 137.615 16.96C138.095 17.6267 138.335 18.5867 138.335 19.84V26H136.035V20.14C136.035 19.3267 135.915 18.7533 135.675 18.42C135.435 18.0867 135.042 17.92 134.495 17.92C134.069 17.92 133.689 18.0267 133.355 18.24C133.035 18.44 132.669 18.74 132.255 19.14V26H129.955ZM144.997 26.24C144.317 26.24 143.684 26.1267 143.097 25.9C142.51 25.66 141.997 25.32 141.557 24.88C141.117 24.44 140.77 23.9067 140.517 23.28C140.277 22.64 140.157 21.9133 140.157 21.1C140.157 20.3 140.284 19.58 140.537 18.94C140.79 18.3 141.124 17.76 141.537 17.32C141.964 16.88 142.45 16.54 142.997 16.3C143.544 16.06 144.104 15.94 144.677 15.94C145.344 15.94 145.93 16.0533 146.437 16.28C146.944 16.5067 147.364 16.8267 147.697 17.24C148.044 17.6533 148.304 18.1467 148.477 18.72C148.65 19.2933 148.737 19.92 148.737 20.6C148.737 20.8267 148.724 21.04 148.697 21.24C148.684 21.44 148.664 21.6 148.637 21.72H142.397C142.504 22.6 142.81 23.28 143.317 23.76C143.837 24.2267 144.497 24.46 145.297 24.46C145.724 24.46 146.117 24.4 146.477 24.28C146.85 24.1467 147.217 23.9667 147.577 23.74L148.357 25.18C147.89 25.4867 147.37 25.74 146.797 25.94C146.224 26.14 145.624 26.24 144.997 26.24ZM142.377 20.16H146.737C146.737 19.4 146.57 18.8067 146.237 18.38C145.917 17.94 145.417 17.72 144.737 17.72C144.15 17.72 143.637 17.9267 143.197 18.34C142.757 18.7533 142.484 19.36 142.377 20.16ZM153.324 26.24C152.644 26.24 151.971 26.1133 151.304 25.86C150.651 25.5933 150.084 25.2667 149.604 24.88L150.684 23.4C151.124 23.7467 151.557 24.02 151.984 24.22C152.424 24.4067 152.897 24.5 153.404 24.5C153.937 24.5 154.331 24.3933 154.584 24.18C154.837 23.9533 154.964 23.6667 154.964 23.32C154.964 23.12 154.904 22.9467 154.784 22.8C154.664 22.64 154.504 22.5 154.304 22.38C154.104 22.26 153.877 22.1533 153.624 22.06C153.371 21.9533 153.117 21.8467 152.864 21.74C152.544 21.62 152.217 21.48 151.884 21.32C151.551 21.16 151.251 20.9667 150.984 20.74C150.731 20.5133 150.517 20.2533 150.344 19.96C150.184 19.6533 150.104 19.2933 150.104 18.88C150.104 18.0133 150.424 17.3067 151.064 16.76C151.704 16.2133 152.577 15.94 153.684 15.94C154.364 15.94 154.977 16.06 155.524 16.3C156.071 16.54 156.544 16.8133 156.944 17.12L155.884 18.52C155.537 18.2667 155.184 18.0667 154.824 17.92C154.477 17.76 154.111 17.68 153.724 17.68C153.231 17.68 152.864 17.7867 152.624 18C152.397 18.2 152.284 18.4533 152.284 18.76C152.284 18.96 152.337 19.1333 152.444 19.28C152.564 19.4133 152.717 19.5333 152.904 19.64C153.091 19.7467 153.304 19.8467 153.544 19.94C153.797 20.0333 154.057 20.1267 154.324 20.22C154.657 20.34 154.991 20.48 155.324 20.64C155.657 20.7867 155.957 20.9733 156.224 21.2C156.504 21.4267 156.724 21.7067 156.884 22.04C157.057 22.36 157.144 22.7467 157.144 23.2C157.144 23.6267 157.057 24.0267 156.884 24.4C156.724 24.76 156.484 25.08 156.164 25.36C155.844 25.6267 155.444 25.84 154.964 26C154.484 26.16 153.937 26.24 153.324 26.24ZM161.587 26.24C160.907 26.24 160.234 26.1133 159.567 25.86C158.914 25.5933 158.347 25.2667 157.867 24.88L158.947 23.4C159.387 23.7467 159.821 24.02 160.247 24.22C160.687 24.4067 161.161 24.5 161.667 24.5C162.201 24.5 162.594 24.3933 162.847 24.18C163.101 23.9533 163.227 23.6667 163.227 23.32C163.227 23.12 163.167 22.9467 163.047 22.8C162.927 22.64 162.767 22.5 162.567 22.38C162.367 22.26 162.141 22.1533 161.887 22.06C161.634 21.9533 161.381 21.8467 161.127 21.74C160.807 21.62 160.481 21.48 160.147 21.32C159.814 21.16 159.514 20.9667 159.247 20.74C158.994 20.5133 158.781 20.2533 158.607 19.96C158.447 19.6533 158.367 19.2933 158.367 18.88C158.367 18.0133 158.687 17.3067 159.327 16.76C159.967 16.2133 160.841 15.94 161.947 15.94C162.627 15.94 163.241 16.06 163.787 16.3C164.334 16.54 164.807 16.8133 165.207 17.12L164.147 18.52C163.801 18.2667 163.447 18.0667 163.087 17.92C162.741 17.76 162.374 17.68 161.987 17.68C161.494 17.68 161.127 17.7867 160.887 18C160.661 18.2 160.547 18.4533 160.547 18.76C160.547 18.96 160.601 19.1333 160.707 19.28C160.827 19.4133 160.981 19.5333 161.167 19.64C161.354 19.7467 161.567 19.8467 161.807 19.94C162.061 20.0333 162.321 20.1267 162.587 20.22C162.921 20.34 163.254 20.48 163.587 20.64C163.921 20.7867 164.221 20.9733 164.487 21.2C164.767 21.4267 164.987 21.7067 165.147 22.04C165.321 22.36 165.407 22.7467 165.407 23.2C165.407 23.6267 165.321 24.0267 165.147 24.4C164.987 24.76 164.747 25.08 164.427 25.36C164.107 25.6267 163.707 25.84 163.227 26C162.747 26.16 162.201 26.24 161.587 26.24ZM175.865 26.24C175.105 26.24 174.418 26.1333 173.805 25.92C173.205 25.6933 172.685 25.34 172.245 24.86C171.818 24.38 171.485 23.7667 171.245 23.02C171.018 22.26 170.905 21.34 170.905 20.26V12.92H173.225V20.44C173.225 21.1467 173.285 21.7467 173.405 22.24C173.538 22.72 173.718 23.1067 173.945 23.4C174.185 23.6933 174.465 23.9067 174.785 24.04C175.105 24.16 175.465 24.22 175.865 24.22C176.265 24.22 176.632 24.16 176.965 24.04C177.298 23.9067 177.585 23.6933 177.825 23.4C178.065 23.1067 178.252 22.72 178.385 22.24C178.518 21.7467 178.585 21.1467 178.585 20.44V12.92H180.805V20.26C180.805 21.34 180.692 22.26 180.465 23.02C180.238 23.7667 179.905 24.38 179.465 24.86C179.038 25.34 178.518 25.6933 177.905 25.92C177.305 26.1333 176.625 26.24 175.865 26.24ZM183.521 29.88V16.18H185.421L185.581 17.22H185.661C186.074 16.8733 186.534 16.5733 187.041 16.32C187.547 16.0667 188.074 15.94 188.621 15.94C189.234 15.94 189.774 16.06 190.241 16.3C190.721 16.5267 191.127 16.86 191.461 17.3C191.794 17.74 192.047 18.2667 192.221 18.88C192.394 19.4933 192.481 20.18 192.481 20.94C192.481 21.78 192.361 22.5333 192.121 23.2C191.894 23.8533 191.587 24.4067 191.201 24.86C190.814 25.3 190.367 25.64 189.861 25.88C189.354 26.12 188.827 26.24 188.281 26.24C187.854 26.24 187.427 26.1467 187.001 25.96C186.574 25.7733 186.161 25.5067 185.761 25.16L185.821 26.8V29.88H183.521ZM187.801 24.34C188.454 24.34 189.001 24.06 189.441 23.5C189.881 22.9267 190.101 22.08 190.101 20.96C190.101 19.9733 189.934 19.2067 189.601 18.66C189.267 18.1133 188.727 17.84 187.981 17.84C187.287 17.84 186.567 18.2067 185.821 18.94V23.52C186.181 23.8267 186.527 24.04 186.861 24.16C187.194 24.28 187.507 24.34 187.801 24.34Z" fill="white"/>
</svg>
